<?xml version="1.0" encoding="utf-8"?>
<!-- Generator: Adobe Illustrator 16.0.0, SVG Export Plug-In . SVG Version: 6.00 Build 0)  -->
<!DOCTYPE svg PUBLIC "-//W3C//DTD SVG 1.1//EN" "http://www.w3.org/Graphics/SVG/1.1/DTD/svg11.dtd">
<svg version="1.1" id="Layer_1" xmlns="http://www.w3.org/2000/svg" xmlns:xlink="http://www.w3.org/1999/xlink" x="0px" y="0px"
	 width="150px" height="150px" viewBox="0 0 150 150" enable-background="new 0 0 150 150" xml:space="preserve">
<g>
	<path fill="#58B14B" d="M128.05,128.05C113.383,142.683,95.7,150,75,150s-38.367-7.317-53-21.95C7.333,113.384,0,95.7,0,75
		s7.333-38.384,22-53.05C36.633,7.316,54.3,0,75,0s38.383,7.316,53.05,21.95C142.684,36.616,150,54.3,150,75
		S142.684,113.384,128.05,128.05 M83.7,75.1l-8.65,7.65l-8.7-7.65L37,49.05h76.05v51.9L83.7,75.1l29.35-26.05L83.7,75.1
		l29.35,25.851v-51.9H37L66.35,75.1l8.7,7.65L83.7,75.1 M113.05,100.95H37L66.35,75.1L37,100.95H113.05 M37,100.95v-51.9V100.95"/>
	<path fill="none" stroke="#FFFFFF" stroke-width="2" stroke-linecap="round" stroke-linejoin="round" d="M113.05,49.05L83.7,75.1
		l29.35,25.851V49.05H37L66.35,75.1l8.7,7.65l8.65-7.65 M66.35,75.1L37,100.95h76.05 M37,49.05v51.9"/>
</g>
</svg>
