<?xml version="1.0" encoding="utf-8"?>
<!-- Generator: Adobe Illustrator 16.0.0, SVG Export Plug-In . SVG Version: 6.00 Build 0)  -->
<!DOCTYPE svg PUBLIC "-//W3C//DTD SVG 1.1//EN" "http://www.w3.org/Graphics/SVG/1.1/DTD/svg11.dtd">
<svg version="1.1" id="Layer_1" xmlns="http://www.w3.org/2000/svg" xmlns:xlink="http://www.w3.org/1999/xlink" x="0px" y="0px"
	 width="150px" height="150px" viewBox="0 0 150 150" enable-background="new 0 0 150 150" xml:space="preserve">
<g>
	<path fill="#58B14B" d="M68.1,57.6c2.2-0.733,4.517-1.066,6.95-1c2.467-0.066,4.816,0.267,7.05,1c3.934,1.333,7.567,3.934,10.9,7.8
		c3.167,3.434,6.533,6.484,10.1,9.15c-3.566,2.633-6.933,5.684-10.1,9.15c-3.333,3.833-6.967,6.416-10.9,7.75
		c-2.233,0.732-4.583,1.066-7.05,1c-2.434,0.066-4.75-0.268-6.95-1c-4-1.334-7.649-3.917-10.949-7.75
		c-3.167-3.467-6.534-6.518-10.101-9.15c3.566-2.666,6.934-5.717,10.101-9.15C60.45,61.533,64.1,58.933,68.1,57.6
		c-4,1.333-7.649,3.934-10.949,7.8c-3.167,3.434-6.534,6.484-10.101,9.15c3.566,2.633,6.934,5.684,10.101,9.15
		c3.3,3.833,6.949,6.416,10.949,7.75c2.2,0.732,4.517,1.066,6.95,1c2.467,0.066,4.816-0.268,7.05-1
		c3.934-1.334,7.567-3.917,10.9-7.75c3.167-3.467,6.533-6.518,10.1-9.15c-3.566-2.666-6.933-5.717-10.1-9.15
		c-3.333-3.866-6.967-6.467-10.9-7.8c-2.233-0.733-4.583-1.066-7.05-1C72.616,56.533,70.3,56.866,68.1,57.6 M37,57.5v-13h13H37V57.5
		 M113,57.5v-13h-13h13V57.5 M75,0c20.7,0,38.383,7.316,53.05,21.95C142.684,36.616,150,54.3,150,75s-7.316,38.384-21.95,53.05
		C113.383,142.683,95.7,150,75,150s-38.366-7.317-53-21.95c-5.834-5.834-10.517-12.166-14.05-19C2.65,98.783,0,87.433,0,75
		c0-12.434,2.65-23.784,7.95-34.05c3.533-6.801,8.216-13.134,14.05-19C36.634,7.316,54.3,0,75,0 M37,92.5v13h13H37V92.5
		 M83.15,74.55c0-2.2-0.75-4.066-2.25-5.6L80.8,68.8c-1.566-1.566-3.483-2.35-5.75-2.35c-2.233,0-4.133,0.783-5.7,2.35l-0.399,0.45
		c-1.3,1.5-1.95,3.267-1.95,5.3c0,2.233,0.783,4.133,2.35,5.7c1.567,1.566,3.467,2.35,5.7,2.35c2.267,0,4.184-0.783,5.75-2.35
		C82.366,78.683,83.15,76.783,83.15,74.55c0,2.233-0.784,4.133-2.351,5.7c-1.566,1.566-3.483,2.35-5.75,2.35
		c-2.233,0-4.133-0.783-5.7-2.35c-1.566-1.567-2.35-3.467-2.35-5.7c0-2.033,0.65-3.8,1.95-5.3l0.399-0.45
		c1.567-1.566,3.467-2.35,5.7-2.35c2.267,0,4.184,0.783,5.75,2.35l0.101,0.15C82.4,70.483,83.15,72.35,83.15,74.55 M113,92.5v13h-13
		h13V92.5"/>
	<path fill="none" stroke="#FFFFFF" stroke-width="2" stroke-linecap="round" stroke-linejoin="round" d="M100,44.5h13v13 M50,44.5
		H37v13 M68.1,57.6c-4,1.333-7.649,3.934-10.949,7.8c-3.167,3.434-6.534,6.484-10.101,9.15c3.566,2.633,6.934,5.684,10.101,9.15
		c3.3,3.833,6.949,6.416,10.949,7.75c2.2,0.732,4.517,1.066,6.95,1c2.467,0.066,4.816-0.268,7.05-1
		c3.934-1.334,7.567-3.917,10.9-7.75c3.167-3.467,6.533-6.518,10.1-9.15c-3.566-2.666-6.933-5.717-10.1-9.15
		c-3.333-3.866-6.967-6.467-10.9-7.8c-2.233-0.733-4.583-1.066-7.05-1C72.616,56.533,70.3,56.866,68.1,57.6 M83.15,74.55
		c0,2.233-0.784,4.133-2.351,5.7c-1.566,1.566-3.483,2.35-5.75,2.35c-2.233,0-4.133-0.783-5.7-2.35
		c-1.566-1.567-2.35-3.467-2.35-5.7c0-2.033,0.65-3.8,1.95-5.3l0.399-0.45c1.567-1.566,3.467-2.35,5.7-2.35
		c2.267,0,4.184,0.783,5.75,2.35l0.101,0.15C82.4,70.483,83.15,72.35,83.15,74.55 M50,105.5H37v-13 M100,105.5h13v-13"/>
</g>
</svg>
