<?xml version="1.0" encoding="utf-8"?>
<!-- Generator: Adobe Illustrator 16.0.0, SVG Export Plug-In . SVG Version: 6.00 Build 0)  -->
<!DOCTYPE svg PUBLIC "-//W3C//DTD SVG 1.1//EN" "http://www.w3.org/Graphics/SVG/1.1/DTD/svg11.dtd">
<svg version="1.1" id="Layer_1" xmlns="http://www.w3.org/2000/svg" xmlns:xlink="http://www.w3.org/1999/xlink" x="0px" y="0px"
	 width="150px" height="150px" viewBox="0 0 150 150" enable-background="new 0 0 150 150" xml:space="preserve">
<g>
	<path fill="#57B146" d="M75,0c20.7,0,38.383,7.316,53.05,21.95C142.684,36.616,150,54.3,150,75s-7.316,38.384-21.95,53.05
		C113.383,142.683,95.7,150,75,150s-38.367-7.317-53-21.95C7.333,113.384,0,95.7,0,75s7.333-38.384,22-53.05
		C36.633,7.316,54.3,0,75,0 M37,75.05h38L113.05,75L75,75.05v38v-38H37 M75,75.05v-38.1V75.05"/>
	<path fill="none" stroke="#FFFFFF" stroke-width="2" stroke-linecap="round" stroke-linejoin="round" d="M113.05,75L75,75.05v38
		 M75,75.05H37 M75,36.95v38.1"/>
</g>
</svg>
